# xmcd
#
# Track frame offsets:
#	150
#	20417
#	48972
#	69235
#	84962
#	106832
#	124975
#	144082
#	160220
#	183540
#	199885
#	215337
#	233867
#	250375
#	267182
#	284840
#
# Disc length: 4010
#
# Revision: 2
# Processed by: cddbd v1.5.1PL0 Copyright (c) Steve Scherf et al.
# Submitted via: audiograbber 1.81.02
# Normalized: r1:DSETVAR1
#
DISCID=e40fa810
DTITLE=Various Artist - PECADO CAPITAL INTERNACIONAL
DYEAR=1900
DGENRE=
TTITLE0=GLORIA ESTEFAN - FEELIN
TTITLE1=TINA ARENA - I WANT TO KNOW WHAT LOVE IS
TTITLE2=LAURA PAUSINI - IN ASSENZA DI TE
TTITLE3=ACE OF BASE - WHENEVER YOU'RE NEAR ME
TTITLE4=BRANDY and MONICA - THE BOY IS MINE
TTITLE5=FATBOY SLIM - THE ROCKFELLER SKANK
TTITLE6=THE CORRS - WHAT CAN I DO
TTITLE7=KIVI TREET - YOU BELONG TO ME
TTITLE8=TAMIA - CARELESS WHISPER
TTITLE9=BOSSON - WE LIVE
TTITLE10=ULTRA NATE - IF YOU COULD READ MY MIND
TTITLE11=UNION OF SOULS - DAY'S OVER DAYS
TTITLE12=DEBELAH MORGAN - I LOVE YOU
TTITLE13=THE CAUSE - STAND BY ME
TTITLE14=ROY DRIFTWOOD - TO MAKE YOU FEEL MY LOVE
TTITLE15=DUE ANGELI - DOLANNES MELODIES
EXTD=
EXTT0=
EXTT1=
EXTT2=
EXTT3=
EXTT4=
EXTT5=
EXTT6=
EXTT7=
EXTT8=
EXTT9=
EXTT10=
EXTT11=
EXTT12=
EXTT13=
EXTT14=
EXTT15=
PLAYORDER=
